<?xml version="1.0" encoding="UTF-8"?> <svg xmlns="http://www.w3.org/2000/svg" width="40" height="40" viewBox="0 0 40 40" fill="none"> <path d="M27.5 34.9999C15.0938 34.9999 5 24.9061 5 12.4999C5.00469 10.3719 5.78199 8.31793 7.18738 6.71998C8.59277 5.12203 10.5306 4.0888 12.6406 3.81239C13.1785 3.75275 13.7214 3.866 14.1906 4.13571C14.6598 4.40542 15.0308 4.81757 15.25 5.31239L18.3906 12.6405C18.5535 13.0209 18.6189 13.4359 18.5807 13.848C18.5425 14.26 18.4019 14.6559 18.1719 14.9999L15.5781 18.9686C16.7526 21.3522 18.6879 23.2765 21.0781 24.4374L25 21.828C25.3436 21.5964 25.7405 21.4562 26.1534 21.4207C26.5662 21.3851 26.9813 21.4554 27.3594 21.6249L34.6875 24.7499C35.1823 24.969 35.5945 25.3401 35.8642 25.8093C36.1339 26.2785 36.2471 26.8214 36.1875 27.3593C35.9111 29.4693 34.8779 31.4071 33.2799 32.8125C31.682 34.2179 29.628 34.9952 27.5 34.9999ZM12.9531 6.29677C11.4452 6.4906 10.0597 7.22741 9.05593 8.36923C8.05216 9.51105 7.49899 10.9796 7.5 12.4999C7.50414 17.8029 9.6126 22.8876 13.3624 26.6375C17.1123 30.3873 22.1969 32.4958 27.5 32.4999C29.0203 32.5009 30.4888 31.9477 31.6307 30.944C32.7725 29.9402 33.5093 28.5547 33.7031 27.0468L26.375 23.9218L22.4688 26.5311C22.1093 26.7688 21.6946 26.9094 21.2648 26.9396C20.835 26.9697 20.4047 26.8882 20.0156 26.703C17.1046 25.2949 14.7499 22.9512 13.3281 20.0468C13.1407 19.659 13.0566 19.2295 13.0839 18.7997C13.1113 18.3699 13.2492 17.9544 13.4844 17.5936L16.0938 13.6249L12.9531 6.29677Z" fill="black"></path> </svg> 