<?xml version="1.0" encoding="UTF-8"?> <svg xmlns="http://www.w3.org/2000/svg" width="40" height="40" viewBox="0 0 40 40" fill="none"> <path d="M6.66732 33.3337C5.75065 33.3337 4.96565 33.007 4.31232 32.3537C3.65899 31.7003 3.33288 30.9159 3.33399 30.0003V10.0003C3.33399 9.08366 3.66065 8.29866 4.31399 7.64533C4.96732 6.99199 5.75176 6.66588 6.66732 6.667H33.334C34.2507 6.667 35.0357 6.99366 35.689 7.64699C36.3423 8.30033 36.6684 9.08477 36.6673 10.0003V30.0003C36.6673 30.917 36.3407 31.702 35.6873 32.3553C35.034 33.0087 34.2495 33.3348 33.334 33.3337H6.66732ZM20.0007 21.667L6.66732 13.3337V30.0003H33.334V13.3337L20.0007 21.667ZM20.0007 18.3337L33.334 10.0003H6.66732L20.0007 18.3337ZM6.66732 13.3337V10.0003V30.0003V13.3337Z" fill="black"></path> </svg> 