<?xml version="1.0" encoding="UTF-8"?> <svg xmlns="http://www.w3.org/2000/svg" width="249" height="149" viewBox="0 0 249 149" fill="none"> <path d="M1 15.3582C1 7.42841 7.42841 1 15.3583 1V1V21.7817H1V15.3582Z" fill="#222222" stroke="#222222" stroke-width="0.588756"></path> <rect x="1" y="21.7812" width="14.3583" height="105.632" fill="#222222" stroke="#222222" stroke-width="0.588756"></rect> <path d="M1 133.837C1 141.767 7.42841 148.195 15.3583 148.195V148.195V127.414H1V133.837Z" fill="#222222" stroke="#222222" stroke-width="0.588756"></path> <rect x="15.3582" y="1" width="212.181" height="147.195" fill="#222222"></rect> <rect x="15.3582" y="1" width="212.181" height="147.195" stroke="#222222" stroke-width="0.588756"></rect> <path d="M241.898 15.3582C241.898 7.42841 235.469 1 227.54 1V1V21.7817H241.898V15.3582Z" fill="#222222" stroke="#222222" stroke-width="0.588756"></path> <rect width="14.3583" height="105.632" transform="matrix(-1 0 0 1 241.898 21.7812)" fill="#222222" stroke="#222222" stroke-width="0.588756"></rect> <path fill-rule="evenodd" clip-rule="evenodd" d="M241.637 136.573C241.808 135.687 241.898 134.772 241.898 133.837V127.413H227.54V148.195C231.017 148.195 234.205 146.959 236.689 144.902C239.168 146.553 243.142 148.123 247.943 147.25C246.621 146.683 241.52 143.282 241.709 136.481C241.686 136.513 241.662 136.543 241.637 136.573Z" fill="#222222"></path> <path d="M241.637 136.573L241.864 136.761L241.348 136.518L241.637 136.573ZM241.898 127.413V127.119H242.192V127.413H241.898ZM227.54 127.413H227.245V127.119H227.54V127.413ZM227.54 148.195V148.489H227.245V148.195H227.54ZM236.689 144.902L236.502 144.676L236.67 144.536L236.853 144.657L236.689 144.902ZM247.943 147.25L248.059 146.979L248.958 147.365L247.996 147.539L247.943 147.25ZM241.709 136.481L241.471 136.308L242.03 135.54L242.003 136.489L241.709 136.481ZM242.192 133.837C242.192 134.791 242.101 135.725 241.926 136.629L241.348 136.518C241.516 135.65 241.603 134.754 241.603 133.837H242.192ZM242.192 127.413V133.837H241.603V127.413H242.192ZM227.54 127.119H241.898V127.707H227.54V127.119ZM227.245 148.195V127.413H227.834V148.195H227.245ZM236.877 145.129C234.342 147.228 231.088 148.489 227.54 148.489V147.9C230.946 147.9 234.068 146.69 236.502 144.676L236.877 145.129ZM247.996 147.539C243.101 148.43 239.05 146.829 236.526 145.147L236.853 144.657C239.285 146.278 243.183 147.816 247.891 146.96L247.996 147.539ZM242.003 136.489C241.911 139.809 243.108 142.293 244.489 144.02C245.876 145.753 247.443 146.715 248.059 146.979L247.827 147.52C247.121 147.218 245.476 146.196 244.03 144.387C242.577 142.572 241.318 139.955 241.415 136.473L242.003 136.489ZM241.41 136.386C241.431 136.361 241.452 136.335 241.471 136.308L241.947 136.654C241.92 136.691 241.893 136.726 241.864 136.761L241.41 136.386Z" fill="#222222"></path> </svg> 