<?xml version="1.0" encoding="UTF-8"?> <svg xmlns="http://www.w3.org/2000/svg" width="250" height="66" viewBox="0 0 250 66" fill="none"> <path d="M8.36047 16.1061C8.36047 7.76322 15.1237 1 23.4665 1V1V22.8641H8.36047V16.1061Z" fill="#6B95FF" stroke="#6B95FF" stroke-width="0.619421"></path> <rect x="8.36047" y="22.8643" width="15.1061" height="20.571" fill="#6B95FF" stroke="#6B95FF" stroke-width="0.619421"></rect> <path fill-rule="evenodd" clip-rule="evenodd" d="M8.63462 53.0732C8.4547 52.141 8.36048 51.1783 8.36048 50.1936V43.4356H23.4666V65.2996C19.8084 65.2996 16.454 63.9993 13.8402 61.8357C11.2326 63.5728 7.05148 65.224 1.99998 64.3055C3.39133 63.7092 8.75796 60.1315 8.5592 52.976C8.58331 53.0091 8.60846 53.0415 8.63462 53.0732Z" fill="#6B95FF"></path> <path d="M8.63463 53.0731L8.39587 53.2704L8.93873 53.0144L8.63463 53.0731ZM8.3605 43.4355V43.1258H8.05079V43.4355H8.3605ZM23.4666 43.4355H23.7763V43.1258H23.4666V43.4355ZM23.4666 65.2996V65.6093H23.7763V65.2996H23.4666ZM13.8402 61.8357L14.0377 61.5971L13.8602 61.4502L13.6685 61.5779L13.8402 61.8357ZM2 64.3055L1.878 64.0208L0.932251 64.4261L1.9446 64.6102L2 64.3055ZM8.55922 52.9759L8.80969 52.7938L8.22188 51.9855L8.24963 52.9845L8.55922 52.9759ZM8.05079 50.1935C8.05079 51.198 8.14691 52.1804 8.33054 53.1318L8.93873 53.0144C8.76253 52.1015 8.67021 51.1584 8.67021 50.1935H8.05079ZM8.05079 43.4355V50.1935H8.67021V43.4355H8.05079ZM23.4666 43.1258H8.3605V43.7453H23.4666V43.1258ZM23.7763 65.2996V43.4355H23.1569V65.2996H23.7763ZM13.6427 62.0742C16.31 64.2821 19.7337 65.6093 23.4666 65.6093V64.9899C19.8832 64.9899 16.598 63.7164 14.0377 61.5971L13.6427 62.0742ZM1.9446 64.6102C7.09474 65.5466 11.3564 63.8625 14.0119 62.0934L13.6685 61.5779C11.1089 63.283 7.00825 64.9013 2.0554 64.0008L1.9446 64.6102ZM8.24963 52.9845C8.34663 56.4768 7.08729 59.0904 5.63406 60.9069C4.17475 62.7311 2.52623 63.743 1.878 64.0208L2.122 64.5901C2.86512 64.2717 4.59559 63.1966 6.11774 61.2939C7.64598 59.3836 8.97057 56.6306 8.86881 52.9673L8.24963 52.9845ZM8.87339 52.8759C8.85123 52.849 8.82999 52.8217 8.80969 52.7938L8.30874 53.1581C8.33667 53.1965 8.36573 53.2339 8.39587 53.2704L8.87339 52.8759Z" fill="#6B95FF"></path> <rect x="23.4665" y="1" width="210.367" height="64.2991" fill="#6B95FF"></rect> <rect x="23.4665" y="1" width="210.367" height="64.2991" stroke="#6B95FF" stroke-width="0.619421"></rect> <path d="M248.94 16.1061C248.94 7.76322 242.177 1 233.834 1V1V22.8641H248.94V16.1061Z" fill="#6B95FF" stroke="#6B95FF" stroke-width="0.619421"></path> <rect width="15.1061" height="20.571" transform="matrix(-1 0 0 1 248.94 22.8643)" fill="#6B95FF" stroke="#6B95FF" stroke-width="0.619421"></rect> <path d="M248.94 50.1928C248.94 58.5356 242.177 65.2988 233.834 65.2988V65.2988V43.4348H248.94V50.1928Z" fill="#6B95FF" stroke="#6B95FF" stroke-width="0.619421"></path> </svg> 