<?xml version="1.0" encoding="UTF-8"?> <svg xmlns="http://www.w3.org/2000/svg" width="40" height="40" viewBox="0 0 40 40" fill="none"> <path d="M5.26743 7.44812C7.20087 5.51433 9.79409 4.38326 12.5268 4.28187C15.2594 4.18048 17.9293 5.11626 20.0008 6.90145C22.0704 5.11924 24.7367 4.1845 27.4661 4.28439C30.1955 4.38427 32.7864 5.5114 34.7202 7.44013C36.654 9.36885 37.7879 11.9568 37.8949 14.6859C38.002 17.415 37.0742 20.0839 35.2974 22.1581L22.3558 35.1414C21.7612 35.7362 20.9637 36.0843 20.1233 36.1158C19.2829 36.1474 18.4616 35.86 17.8241 35.3115L17.6408 35.1431L4.70076 22.1581C2.92491 20.0857 1.99673 17.4193 2.10179 14.6921C2.20685 11.9649 3.3374 9.37781 5.26743 7.44812ZM7.62409 9.80479C6.26116 11.1681 5.47552 13.0039 5.43021 14.9311C5.3849 16.8583 6.08341 18.7289 7.38076 20.1548L7.62409 20.4115L19.9991 32.7865L28.8374 23.9465L22.9458 18.0548L21.1791 19.8215C20.7149 20.2859 20.1637 20.6544 19.5571 20.9058C18.9505 21.1572 18.3003 21.2867 17.6436 21.2869C16.3174 21.2872 15.0454 20.7607 14.1074 19.8231C13.1694 18.8856 12.6423 17.6138 12.642 16.2876C12.6417 14.9614 13.1682 13.6894 14.1058 12.7515L17.6091 9.24645C16.2149 8.13374 14.4698 7.55427 12.6869 7.612C10.904 7.66973 9.20008 8.36088 7.88076 9.56145L7.62409 9.80479ZM21.7674 14.5181C22.08 14.2057 22.5038 14.0301 22.9458 14.0301C23.3877 14.0301 23.8115 14.2057 24.1241 14.5181L31.1941 21.5881L32.3741 20.4115C33.7599 19.0267 34.5488 17.1546 34.5721 15.1957C34.5955 13.2368 33.8515 11.3465 32.4991 9.92904C31.1468 8.51161 29.2935 7.67957 27.3357 7.61087C25.3778 7.54218 23.4708 8.24228 22.0224 9.56145L21.7674 9.80479L16.4641 15.1081C16.1752 15.3968 16.0024 15.7815 15.9784 16.1892C15.9545 16.5969 16.081 16.9992 16.3341 17.3198L16.4641 17.4648C16.7528 17.7537 17.1375 17.9265 17.5452 17.9505C17.9529 17.9744 18.3552 17.8479 18.6758 17.5948L18.8208 17.4648L21.7674 14.5181Z" fill="black"></path> </svg> 