<?xml version="1.0" encoding="UTF-8"?> <svg xmlns="http://www.w3.org/2000/svg" width="40" height="40" viewBox="0 0 40 40" fill="none"> <path d="M36.6673 28.3363C36.6666 30.6156 35.8875 32.8263 34.459 34.6024C33.0306 36.3785 31.0384 37.6135 28.8123 38.103L27.749 34.913C28.7227 34.7526 29.6487 34.3782 30.4603 33.8168C31.2719 33.2554 31.9488 32.5209 32.4423 31.6663H28.334C27.4499 31.6663 26.6021 31.3152 25.977 30.69C25.3518 30.0649 25.0007 29.2171 25.0007 28.333V21.6663C25.0007 20.7823 25.3518 19.9344 25.977 19.3093C26.6021 18.6842 27.4499 18.333 28.334 18.333H33.2306C32.8239 15.1112 31.2555 12.1485 28.8197 10.0008C26.3839 7.85314 23.2481 6.66813 20.0007 6.66813C16.7532 6.66813 13.6174 7.85314 11.1816 10.0008C8.74578 12.1485 7.17737 15.1112 6.77065 18.333H11.6673C12.5514 18.333 13.3992 18.6842 14.0243 19.3093C14.6495 19.9344 15.0007 20.7823 15.0007 21.6663V28.333C15.0007 29.2171 14.6495 30.0649 14.0243 30.69C13.3992 31.3152 12.5514 31.6663 11.6673 31.6663H6.66732C5.78326 31.6663 4.93542 31.3152 4.31029 30.69C3.68517 30.0649 3.33398 29.2171 3.33398 28.333V19.9997C3.33398 10.7947 10.7957 3.33301 20.0007 3.33301C29.2057 3.33301 36.6673 10.7947 36.6673 19.9997V28.3363ZM33.334 28.333V21.6663H28.334V28.333H33.334ZM6.66732 21.6663V28.333H11.6673V21.6663H6.66732Z" fill="black"></path> </svg> 