<?xml version="1.0" encoding="UTF-8"?> <svg xmlns="http://www.w3.org/2000/svg" width="249" height="51" viewBox="0 0 249 51" fill="none"> <path d="M1 15.3582C1 7.42841 7.42841 1 15.3583 1V21.7817H1V15.3582Z" fill="#222222" stroke="#222222" stroke-width="0.588756"></path> <rect x="1" y="21.7812" width="14.3583" height="7.63187" fill="#222222" stroke="#222222" stroke-width="0.588756"></rect> <path d="M1 35.8371C1 43.7669 7.42841 50.1953 15.3583 50.1953V29.4136H1V35.8371Z" fill="#222222" stroke="#222222" stroke-width="0.588756"></path> <rect x="15.3582" y="1" width="212.181" height="49.1952" fill="#222222"></rect> <rect x="15.3582" y="1" width="212.181" height="49.1952" stroke="#222222" stroke-width="0.588756"></rect> <path d="M241.898 15.3582C241.898 7.42841 235.469 1 227.54 1V21.7817H241.898V15.3582Z" fill="#222222" stroke="#222222" stroke-width="0.588756"></path> <rect width="14.3583" height="7.63187" transform="matrix(-1 0 0 1 241.898 21.7812)" fill="#222222" stroke="#222222" stroke-width="0.588756"></rect> <path fill-rule="evenodd" clip-rule="evenodd" d="M241.637 38.5735C241.808 37.6875 241.898 36.7725 241.898 35.8365V29.4131H227.54V50.1948C231.017 50.1948 234.205 48.9588 236.689 46.9023C239.168 48.5534 243.142 50.1228 247.943 49.2498C246.621 48.6831 241.52 45.2824 241.709 38.4812C241.686 38.5127 241.662 38.5434 241.637 38.5735Z" fill="#222222"></path> <path d="M241.637 38.5735L241.864 38.761L241.348 38.5177L241.637 38.5735ZM241.898 29.4131V29.1187H242.192V29.4131H241.898ZM227.54 29.4131H227.245V29.1187H227.54V29.4131ZM227.54 50.1948V50.4891H227.245V50.1948H227.54ZM236.689 46.9023L236.502 46.6755L236.67 46.5359L236.853 46.6573L236.689 46.9023ZM247.943 49.2498L248.059 48.9793L248.958 49.3645L247.996 49.5395L247.943 49.2498ZM241.709 38.4812L241.471 38.308L242.03 37.5398L242.003 38.4893L241.709 38.4812ZM242.192 35.8365C242.192 36.7913 242.101 37.725 241.926 38.6293L241.348 38.5177C241.516 37.65 241.603 36.7536 241.603 35.8365H242.192ZM242.192 29.4131V35.8365H241.603V29.4131H242.192ZM227.54 29.1187H241.898V29.7075H227.54V29.1187ZM227.245 50.1948V29.4131H227.834V50.1948H227.245ZM236.877 47.1291C234.342 49.2277 231.088 50.4891 227.54 50.4891V49.9004C230.946 49.9004 234.068 48.69 236.502 46.6755L236.877 47.1291ZM247.996 49.5395C243.101 50.4295 239.05 48.8288 236.526 47.1473L236.853 46.6573C239.285 48.278 243.183 49.8162 247.891 48.9602L247.996 49.5395ZM242.003 38.4893C241.911 41.8087 243.108 44.2929 244.489 46.0195C245.876 47.7534 247.443 48.7152 248.059 48.9793L247.827 49.5204C247.121 49.2177 245.476 48.1958 244.03 46.3873C242.577 44.5716 241.318 41.9549 241.415 38.473L242.003 38.4893ZM241.41 38.386C241.431 38.3605 241.452 38.3345 241.471 38.308L241.947 38.6543C241.92 38.6908 241.893 38.7263 241.864 38.761L241.41 38.386Z" fill="#222222"></path> </svg> 