<?xml version="1.0" encoding="UTF-8"?> <svg xmlns="http://www.w3.org/2000/svg" width="250" height="52" viewBox="0 0 250 52" fill="none"> <path d="M8.36047 16.1061C8.36047 7.76322 15.1237 1 23.4665 1V22.8641H8.36047V16.1061Z" fill="#6B95FF" stroke="#6B95FF" stroke-width="0.619421"></path> <rect x="8.36047" y="22.8643" width="15.1061" height="6.57103" fill="#6B95FF" stroke="#6B95FF" stroke-width="0.619421"></rect> <path fill-rule="evenodd" clip-rule="evenodd" d="M8.63463 39.0731C8.45472 38.1409 8.3605 37.1782 8.3605 36.1935V29.4355H23.4666V51.2996C19.8084 51.2996 16.454 49.9993 13.8402 47.8357C11.2326 49.5728 7.0515 51.2239 2 50.3055C3.39135 49.7092 8.75798 46.1314 8.55922 38.9759C8.58333 39.0091 8.60848 39.0415 8.63463 39.0731Z" fill="#6B95FF"></path> <path d="M8.63463 39.0731L8.39587 39.2704L8.93873 39.0144L8.63463 39.0731ZM8.3605 29.4355V29.1258H8.05079V29.4355H8.3605ZM23.4666 29.4355H23.7763V29.1258H23.4666V29.4355ZM23.4666 51.2996V51.6093H23.7763V51.2996H23.4666ZM13.8402 47.8357L14.0377 47.5971L13.8602 47.4502L13.6685 47.5779L13.8402 47.8357ZM2 50.3055L1.878 50.0208L0.932251 50.4261L1.9446 50.6102L2 50.3055ZM8.55922 38.9759L8.80969 38.7938L8.22188 37.9855L8.24963 38.9845L8.55922 38.9759ZM8.05079 36.1935C8.05079 37.198 8.14691 38.1804 8.33054 39.1318L8.93873 39.0144C8.76253 38.1015 8.67021 37.1584 8.67021 36.1935H8.05079ZM8.05079 29.4355V36.1935H8.67021V29.4355H8.05079ZM23.4666 29.1258H8.3605V29.7453H23.4666V29.1258ZM23.7763 51.2996V29.4355H23.1569V51.2996H23.7763ZM13.6427 48.0742C16.31 50.2821 19.7337 51.6093 23.4666 51.6093V50.9899C19.8832 50.9899 16.598 49.7164 14.0377 47.5971L13.6427 48.0742ZM1.9446 50.6102C7.09474 51.5466 11.3564 49.8625 14.0119 48.0934L13.6685 47.5779C11.1089 49.283 7.00825 50.9013 2.0554 50.0008L1.9446 50.6102ZM8.24963 38.9845C8.34663 42.4768 7.08729 45.0904 5.63406 46.9069C4.17475 48.7311 2.52623 49.743 1.878 50.0208L2.122 50.5901C2.86512 50.2717 4.59559 49.1966 6.11774 47.2939C7.64598 45.3836 8.97057 42.6306 8.86881 38.9673L8.24963 38.9845ZM8.87339 38.8759C8.85123 38.849 8.82999 38.8217 8.80969 38.7938L8.30874 39.1581C8.33667 39.1965 8.36573 39.2339 8.39587 39.2704L8.87339 38.8759Z" fill="#6B95FF"></path> <rect x="23.4665" y="1" width="210.367" height="50.2991" fill="#6B95FF"></rect> <rect x="23.4665" y="1" width="210.367" height="50.2991" stroke="#6B95FF" stroke-width="0.619421"></rect> <path d="M248.94 16.1061C248.94 7.76322 242.177 1 233.834 1V22.8641H248.94V16.1061Z" fill="#6B95FF" stroke="#6B95FF" stroke-width="0.619421"></path> <rect width="15.1061" height="6.57103" transform="matrix(-1 0 0 1 248.94 22.8643)" fill="#6B95FF" stroke="#6B95FF" stroke-width="0.619421"></rect> <path d="M248.94 36.1927C248.94 44.5356 242.177 51.2988 233.834 51.2988V29.4348H248.94V36.1927Z" fill="#6B95FF" stroke="#6B95FF" stroke-width="0.619421"></path> </svg> 