<?xml version="1.0" encoding="UTF-8"?> <svg xmlns="http://www.w3.org/2000/svg" width="40" height="40" viewBox="0 0 40 40" fill="none"> <path d="M19.9993 15C21.3254 15 22.5972 15.5268 23.5349 16.4645C24.4726 17.4021 24.9993 18.6739 24.9993 20C24.9993 21.3261 24.4726 22.5979 23.5349 23.5355C22.5972 24.4732 21.3254 25 19.9993 25C18.6733 25 17.4015 24.4732 16.4638 23.5355C15.5261 22.5979 14.9993 21.3261 14.9993 20C14.9993 18.6739 15.5261 17.4021 16.4638 16.4645C17.4015 15.5268 18.6733 15 19.9993 15ZM19.9993 7.5C28.3327 7.5 35.4494 12.6833 38.3327 20C35.4494 27.3167 28.3327 32.5 19.9993 32.5C11.666 32.5 4.54935 27.3167 1.66602 20C4.54935 12.6833 11.666 7.5 19.9993 7.5ZM5.29935 20C6.64644 22.7505 8.73819 25.0679 11.3368 26.6888C13.9354 28.3096 16.9367 29.1689 19.9993 29.1689C23.062 29.1689 26.0633 28.3096 28.6619 26.6888C31.2605 25.0679 33.3523 22.7505 34.6993 20C33.3523 17.2495 31.2605 14.9321 28.6619 13.3112C26.0633 11.6904 23.062 10.8311 19.9993 10.8311C16.9367 10.8311 13.9354 11.6904 11.3368 13.3112C8.73819 14.9321 6.64644 17.2495 5.29935 20Z" fill="black"></path> </svg> 